<?xml version="1.0" standalone="no"?>
<!DOCTYPE svg PUBLIC "-//W3C//DTD SVG 20010904//EN"
 "http://www.w3.org/TR/2001/REC-SVG-20010904/DTD/svg10.dtd">
<svg version="1.0" xmlns="http://www.w3.org/2000/svg"
 width="839.000000pt" height="773.000000pt" viewBox="0 0 839.000000 773.000000"
 preserveAspectRatio="xMidYMid meet">

<g transform="translate(0.000000,773.000000) scale(0.100000,-0.100000)"
fill="#000000" stroke="none">
<path d="M0 3865 l0 -3865 4195 0 4195 0 -1 1853 c-1 1018 -3 1843 -6 1832
-14 -58 -90 -278 -120 -349 -83 -196 -186 -325 -346 -434 -94 -65 -267 -149
-331 -161 -112 -21 -194 -114 -343 -385 -141 -258 -223 -386 -276 -430 -28
-23 -38 -38 -34 -50 10 -27 36 -30 92 -12 43 13 55 22 66 48 7 17 52 91 101
164 104 158 233 298 338 367 74 49 666 347 688 347 18 0 15 -12 -22 -125 -81
-243 -226 -453 -391 -570 -173 -122 -418 -215 -610 -231 -44 -3 -116 -17 -160
-29 -44 -13 -91 -26 -105 -29 -17 -3 -79 -67 -188 -190 -189 -214 -341 -363
-397 -390 -22 -10 -51 -24 -64 -30 -39 -18 -25 -30 31 -27 36 2 60 10 78 24
365 301 519 399 656 418 38 5 197 28 354 50 157 23 302 43 323 46 20 3 37 2
37 -3 0 -13 -150 -179 -223 -247 -155 -144 -280 -236 -410 -298 -114 -54 -198
-70 -386 -70 -160 0 -223 8 -285 38 -32 15 -48 15 -154 5 l-119 -12 -134 -91
c-237 -160 -433 -271 -558 -315 l-64 -22 42 -12 c40 -11 45 -9 144 44 126 68
295 136 413 167 75 20 112 24 239 23 151 0 248 -11 515 -59 74 -13 152 -25
173 -27 20 -1 37 -5 37 -9 0 -4 -19 -22 -43 -41 -170 -138 -390 -242 -609
-290 -119 -25 -340 -30 -447 -9 -90 18 -218 63 -298 106 -53 28 -89 39 -163
50 l-95 14 -399 -84 c-219 -46 -401 -86 -403 -89 -3 -2 4 -9 15 -15 13 -7 36
-6 80 4 108 26 284 54 377 60 142 10 261 -15 485 -102 149 -57 530 -244 530
-259 0 -21 -26 -33 -111 -53 -153 -37 -308 -49 -549 -46 -254 3 -320 14 -437
69 -142 68 -300 189 -317 244 -4 13 -30 26 -80 42 -70 22 -76 22 -114 7 -70
-28 -70 0 2 130 30 55 57 118 61 143 11 71 64 228 103 305 81 162 159 253 312
363 193 139 371 295 425 372 25 36 30 39 36 23 4 -10 8 -59 8 -110 2 -240 -88
-459 -276 -670 -127 -143 -293 -250 -484 -312 -77 -25 -123 -68 -133 -123 -4
-21 -5 -38 -3 -38 2 0 195 40 428 90 233 49 427 90 430 90 4 0 21 33 39 74 30
71 32 78 22 133 -16 91 -12 258 8 356 31 147 55 189 358 620 64 91 119 181
132 215 37 104 36 102 54 59 41 -94 51 -158 50 -322 0 -182 -18 -281 -78 -449
-63 -177 -146 -284 -309 -399 -127 -91 -207 -180 -183 -204 12 -12 92 20 260
105 190 97 353 199 409 257 51 53 109 142 109 168 0 12 -16 72 -35 132 -77
244 -81 375 -16 561 23 66 75 223 116 349 61 188 75 242 75 297 1 41 5 65 11
61 18 -11 117 -229 152 -338 62 -189 78 -349 50 -510 -28 -162 -88 -299 -199
-458 -33 -48 -72 -106 -85 -128 l-23 -41 28 15 c48 25 224 188 334 308 178
196 264 325 276 412 6 41 3 47 -43 103 -156 189 -228 332 -234 469 -3 53 10
286 18 320 2 11 7 101 10 200 5 164 4 185 -15 240 -11 33 -19 62 -17 64 10 9
98 -75 157 -148 118 -148 215 -335 259 -503 44 -165 27 -370 -47 -561 -32 -84
-47 -186 -25 -173 14 9 193 282 245 373 82 147 130 266 142 352 l6 47 -56 43
c-73 56 -213 204 -269 283 -100 143 -144 251 -182 455 -48 253 -65 314 -111
401 -24 45 -41 82 -38 82 3 0 47 -24 97 -54 253 -150 452 -377 554 -632 36
-88 37 -101 34 -394 -1 -52 3 -111 7 -130 l9 -35 22 50 c33 74 127 356 156
470 31 120 55 254 55 305 l0 37 -97 38 c-54 20 -145 62 -203 92 -268 140 -370
254 -570 638 -87 166 -99 185 -159 248 l-46 49 45 -7 c282 -43 569 -194 716
-376 60 -74 130 -182 168 -256 32 -64 71 -198 81 -276 7 -54 32 -97 56 -97 36
0 10 494 -36 693 -22 94 -52 171 -75 192 -12 11 -47 20 -102 26 -203 22 -405
78 -496 139 -65 44 -194 157 -397 349 -77 73 -169 150 -204 171 l-64 38 44 12
c24 7 87 14 139 16 157 5 329 -32 505 -107 259 -111 328 -173 468 -424 37 -66
76 -120 116 -160 34 -33 61 -55 61 -51 0 17 -89 312 -130 431 -92 267 -159
397 -216 421 -44 18 -125 18 -287 -2 -192 -24 -277 -17 -407 34 -58 23 -231
104 -386 181 -154 76 -298 141 -318 144 -21 3 -39 7 -42 10 -7 7 132 55 238
81 293 75 535 51 782 -76 66 -34 101 -62 192 -155 92 -93 124 -119 185 -148
40 -19 74 -33 77 -31 11 12 -466 666 -516 708 -28 23 -35 25 -83 17 -29 -5
-118 -34 -198 -65 -205 -79 -278 -97 -371 -89 -41 3 -226 28 -410 54 -215 31
-365 48 -418 47 -51 -1 -81 2 -79 9 7 19 173 126 272 175 286 139 573 173 820
95 28 -9 106 -43 175 -75 95 -44 139 -59 183 -62 31 -2 57 -2 57 1 -1 6 -259
162 -417 251 l-92 51 -123 -15 c-228 -29 -433 5 -637 108 -86 43 -157 91 -270
180 -186 148 -418 246 -583 246 -28 0 -49 2 -47 4 17 17 288 81 444 106 203
31 470 27 610 -9 155 -40 302 -128 418 -250 75 -79 140 -187 153 -256 6 -32
19 -42 223 -161 119 -70 246 -147 282 -170 36 -24 69 -44 72 -44 16 0 -15 74
-39 93 -256 199 -473 451 -556 642 -15 33 -45 141 -68 240 -23 99 -52 224 -66
277 -13 53 -24 99 -24 102 0 10 102 -39 175 -84 303 -185 504 -434 575 -710
31 -117 39 -305 16 -382 l-16 -56 31 -73 c89 -218 259 -495 408 -666 44 -50
95 -121 114 -157 18 -36 37 -63 40 -59 4 3 7 29 7 57 0 47 -5 59 -68 146 -159
222 -253 432 -286 640 -14 85 -18 411 -7 605 l6 120 64 -60 c270 -255 421
-593 421 -946 0 -137 -22 -238 -75 -342 -35 -68 -35 -70 -35 -196 0 -127 0
-128 40 -220 60 -138 166 -428 200 -545 17 -57 34 -144 38 -193 l8 -88 19 60
c29 92 24 143 -28 290 -78 222 -108 429 -85 590 23 170 133 609 180 717 11 26
27 48 34 48 18 0 60 -67 96 -154 104 -252 154 -575 123 -793 -7 -50 -62 -217
-95 -288 -33 -69 -94 -159 -128 -187 -26 -21 -31 -33 -42 -118 -14 -113 -35
-207 -57 -262 -20 -50 -15 -194 18 -505 21 -204 22 -214 5 -267 -10 -31 -16
-61 -14 -68 5 -15 62 67 89 127 17 39 18 51 8 117 -14 88 -6 325 15 448 27
165 59 245 172 432 68 114 298 458 302 453 2 -1 12 -45 23 -96 13 -61 22 -155
26 -265 9 -261 -17 -420 -97 -591 -81 -173 -198 -317 -308 -380 -49 -28 -59
-41 -114 -139 -33 -60 -77 -134 -98 -165 -36 -52 -43 -77 -95 -309 -64 -288
-87 -368 -121 -427 -14 -24 -21 -43 -17 -43 4 0 29 16 55 35 37 27 50 44 58
77 29 108 123 376 163 461 52 111 92 171 144 220 114 105 436 385 485 420 l57
42 0 1893 1 1892 -4195 0 -4195 0 0 -3865z m2459 3700 c-17 -66 -48 -195 -69
-286 -42 -179 -73 -260 -141 -360 -95 -142 -269 -327 -437 -464 -66 -54 -90
-88 -80 -114 1 -5 46 17 98 49 52 32 178 107 279 167 l184 108 17 50 c62 182
194 321 407 429 143 72 321 103 528 92 202 -11 436 -51 619 -108 l71 -22 -75
-7 c-186 -16 -361 -93 -570 -250 -165 -124 -257 -179 -369 -220 -181 -66 -390
-86 -559 -54 l-83 16 -77 -42 c-124 -68 -442 -259 -442 -266 0 -3 27 -3 60 0
46 4 91 20 188 65 193 92 255 107 442 107 216 0 340 -31 552 -135 95 -47 230
-134 261 -168 15 -16 10 -17 -66 -14 -52 2 -162 -8 -302 -28 -462 -64 -512
-70 -575 -71 -73 -1 -160 24 -360 103 -69 27 -150 51 -181 55 l-56 6 -59 -74
c-102 -125 -195 -252 -402 -546 -40 -56 -72 -104 -72 -107 0 -10 76 22 127 53
28 17 85 69 127 115 90 99 166 151 303 206 129 52 225 70 366 70 160 0 310
-29 485 -93 l87 -31 -53 -7 c-38 -5 -118 -40 -305 -132 -279 -139 -408 -198
-487 -221 -69 -21 -221 -21 -375 0 -145 19 -225 15 -263 -12 -66 -49 -184
-344 -316 -792 l-15 -53 39 31 c56 45 99 100 160 210 108 193 182 268 343 348
206 101 397 152 577 153 90 0 205 -13 217 -25 2 -2 -27 -22 -64 -44 -37 -23
-133 -103 -213 -178 -178 -168 -318 -290 -387 -336 -28 -20 -96 -49 -150 -67
-98 -31 -305 -71 -368 -71 -57 0 -81 -15 -105 -67 -33 -70 -67 -220 -83 -363
-17 -145 -22 -480 -9 -480 32 0 51 40 72 144 34 176 101 313 230 471 94 115
190 190 345 267 78 40 229 90 320 107 33 7 71 14 84 17 19 4 13 -7 -36 -63
-39 -44 -88 -120 -140 -218 -185 -346 -275 -462 -445 -575 -72 -47 -249 -134
-355 -174 -40 -15 -73 -31 -74 -34 0 -4 -2 -14 -4 -22 -5 -27 23 -203 50 -305
30 -115 103 -344 148 -460 l31 -80 12 70 c6 39 10 73 8 76 -2 4 -4 78 -4 165
-1 179 6 211 81 358 78 155 203 303 354 421 84 65 225 155 244 155 6 0 -10
-39 -35 -88 -41 -79 -50 -108 -89 -303 -59 -298 -81 -360 -188 -519 -55 -82
-235 -272 -299 -316 -40 -28 -40 -29 -34 -77 17 -124 112 -316 290 -586 l101
-154 3 47 c2 33 -5 66 -23 113 -37 90 -71 232 -80 324 -22 251 117 590 341
828 72 76 116 105 99 64 -43 -101 -45 -190 -10 -587 26 -300 -15 -422 -227
-679 -67 -81 -63 -129 25 -265 116 -179 557 -624 557 -562 0 6 -33 58 -74 115
-251 355 -296 652 -156 1050 33 93 126 292 142 301 5 3 8 -27 7 -68 -1 -68 7
-98 115 -425 117 -353 117 -353 117 -450 0 -124 -24 -239 -83 -405 l-20 -57
23 -45 c55 -112 173 -207 425 -345 136 -74 304 -151 330 -151 11 0 14 6 9 23
-13 42 -62 92 -173 177 -142 108 -173 139 -232 227 -163 243 -222 709 -119
942 11 24 21 42 24 39 2 -2 16 -35 31 -74 25 -67 80 -155 209 -334 265 -369
297 -446 293 -717 0 -76 -1 -163 -1 -193 0 -38 7 -72 25 -111 l26 -55 409 -87
c224 -48 418 -90 431 -93 19 -6 22 -3 22 23 0 17 -13 47 -30 70 -25 34 -43 46
-98 64 -172 57 -303 132 -417 241 -172 163 -288 360 -331 562 -16 73 -20 267
-6 292 5 10 19 -1 48 -40 53 -68 205 -203 341 -303 216 -159 264 -208 350
-358 54 -94 90 -188 123 -320 20 -78 42 -136 78 -202 34 -61 49 -98 45 -113
-4 -15 -10 -19 -22 -14 -68 28 -69 28 -138 6 -59 -19 -73 -28 -103 -69 -83
-113 -300 -238 -466 -269 -175 -33 -565 -22 -779 22 -92 19 -155 43 -155 59 0
7 78 51 173 98 393 193 611 267 790 267 87 0 267 -26 411 -60 76 -18 90 -18
108 -6 18 13 16 15 -34 26 -29 6 -210 45 -403 86 l-350 75 -100 -12 c-58 -7
-111 -19 -125 -29 -76 -50 -215 -101 -345 -125 -128 -25 -343 -16 -480 19
-109 27 -248 80 -335 127 -109 60 -301 199 -275 199 17 1 122 17 310 49 274
46 438 57 555 37 136 -23 293 -79 466 -166 147 -74 152 -75 194 -65 l43 10
-59 19 c-111 35 -311 148 -564 320 l-135 92 -123 12 c-103 10 -126 10 -145 -2
-48 -30 -131 -41 -297 -40 -184 1 -255 13 -367 64 -162 74 -381 249 -553 444
-97 110 -112 130 -88 121 20 -7 593 -93 673 -100 38 -4 92 -16 120 -26 111
-41 305 -174 506 -346 84 -71 89 -74 150 -80 64 -6 64 -6 46 15 -10 11 -30 22
-46 25 -67 14 -203 143 -482 461 l-114 130 -95 29 c-52 16 -134 32 -183 37
-277 27 -574 164 -743 342 -120 128 -207 277 -270 463 -19 56 -34 110 -34 118
0 12 31 1 127 -44 212 -99 460 -227 553 -284 146 -91 305 -274 429 -495 24
-41 45 -77 47 -79 2 -2 27 -12 56 -22 48 -16 54 -16 70 -2 26 23 22 40 -12 58
-46 24 -172 225 -353 566 -79 148 -179 243 -273 260 -59 11 -208 82 -304 144
-41 27 -118 92 -171 144 -88 88 -100 106 -157 221 -123 250 -238 680 -186 697
17 5 91 -49 214 -157 63 -56 175 -154 248 -218 148 -130 180 -172 254 -342 42
-95 118 -317 148 -428 8 -33 21 -50 58 -77 26 -19 51 -35 55 -35 4 0 -3 19
-17 43 -32 56 -66 177 -120 433 -25 115 -49 221 -55 235 -5 14 -31 59 -58 100
-26 41 -68 113 -92 159 -37 72 -50 88 -84 104 -57 27 -172 139 -229 224 -144
213 -201 437 -191 742 4 113 24 267 44 344 l11 40 124 -190 c222 -335 294
-471 328 -609 36 -146 51 -359 36 -490 -6 -55 -11 -111 -11 -124 1 -25 50
-121 82 -161 l20 -25 -6 35 c-17 92 -15 223 4 388 36 299 37 355 8 442 -14 42
-35 137 -46 213 l-21 137 -44 40 c-80 74 -182 311 -207 480 -29 201 32 540
143 795 36 82 64 125 82 125 34 0 108 -251 188 -630 45 -217 41 -350 -18 -583
-13 -54 -40 -140 -60 -190 -39 -100 -41 -134 -18 -224 22 -85 34 -89 34 -9 0
37 9 103 20 146 27 106 109 342 177 508 31 76 62 153 69 172 8 21 13 80 14
151 0 114 -1 118 -39 200 -52 113 -71 203 -71 342 0 336 137 653 395 910 l90
90 6 -74 c13 -157 10 -571 -6 -659 -37 -209 -143 -441 -299 -650 -51 -68 -56
-79 -56 -127 0 -28 4 -54 8 -57 5 -3 21 22 37 56 15 33 55 90 87 127 175 195
352 477 442 703 26 67 26 69 11 127 -29 113 -14 290 39 448 91 271 324 520
641 685 49 25 91 46 92 44 1 -1 -12 -55 -28 -121z m2117 -1349 c347 -73 590
-201 820 -430 270 -270 439 -633 498 -1071 25 -185 26 -194 26 -370 1 -177 -9
-303 -36 -463 l-16 -94 36 -77 c101 -215 119 -471 50 -708 -97 -334 -371 -614
-711 -727 l-53 -18 0 -126 c0 -70 -5 -144 -11 -166 -30 -108 -234 -224 -474
-271 -301 -58 -825 -53 -1097 10 -199 46 -371 143 -418 236 -17 33 -20 59 -20
189 0 113 -3 150 -12 150 -7 0 -52 18 -101 39 -275 123 -492 353 -590 627 -79
220 -79 491 0 693 33 83 33 111 3 291 -21 128 -24 176 -24 400 0 283 17 433
73 646 170 643 583 1073 1171 1218 184 45 293 56 540 51 193 -3 242 -7 346
-29z"/>
<path d="M3985 5914 c-310 -33 -586 -162 -779 -365 -269 -281 -418 -725 -418
-1244 1 -164 10 -257 49 -471 l25 -142 -35 -78 c-59 -131 -71 -186 -71 -314 0
-77 6 -136 17 -180 39 -145 135 -295 250 -390 71 -59 237 -143 317 -160 74
-17 127 -47 153 -90 20 -32 22 -48 22 -173 l0 -139 35 -18 c39 -20 77 -53 102
-89 l17 -24 35 31 c95 83 259 80 359 -8 25 -23 49 -50 52 -60 6 -17 16 -20 76
-20 l69 0 58 59 c62 63 124 91 203 91 49 0 126 -26 165 -55 l30 -23 28 34 c15
20 43 42 62 51 l34 17 0 134 c0 204 18 230 192 273 213 54 375 160 489 322
153 219 169 525 38 757 -46 81 -49 105 -28 222 22 121 46 342 48 448 2 105
-25 351 -55 491 -112 532 -408 902 -834 1044 -159 53 -250 67 -465 70 -110 1
-218 1 -240 -1z m-304 -2098 c262 -55 441 -265 442 -520 1 -312 -274 -556
-599 -532 -153 11 -256 58 -365 166 -81 81 -118 145 -146 254 -19 76 -13 197
16 278 88 254 377 410 652 354z m1332 -16 c386 -120 514 -588 238 -868 -100
-102 -224 -159 -366 -169 -270 -19 -511 136 -585 376 -25 80 -27 224 -4 302
46 156 179 292 344 353 106 39 259 41 373 6z m-673 -896 c63 -36 84 -115 59
-224 -5 -25 -26 -97 -46 -160 -30 -100 -41 -120 -78 -157 -54 -54 -88 -57
-140 -11 -46 40 -65 78 -105 213 -55 184 -51 281 11 326 46 32 76 39 174 36
69 -2 99 -8 125 -23z"/>
</g>
</svg>
